<svg t="1715131238740" class="icon" viewBox="0 0 1024 1024" version="1.1" xmlns="http://www.w3.org/2000/svg" p-id="19448" width="55" height="55"><path d="M790.186667 317.44c-1.706667-5.12-6.826667-6.826667-11.946667-6.826667h-128V128c0-6.826667-5.12-11.946667-11.946667-11.946667h-139.946666c-6.826667 0-11.946667 5.12-11.946667 11.946667v180.906667H358.4c-5.12 0-10.24 3.413333-11.946667 6.826666-1.706667 5.12-1.706667 10.24 3.413334 13.653334l209.92 209.92c1.706667 1.706667 5.12 3.413333 8.533333 3.413333s6.826667-1.706667 8.533333-3.413333l209.92-209.92c3.413333-3.413333 5.12-8.533333 3.413334-11.946667z" fill="#333333" opacity=".3" p-id="19449"></path><path d="M512 633.173333c-6.826667 0-13.653333-1.706667-18.773333-6.826666L208.213333 339.626667c-6.826667-6.826667-10.24-18.773333-5.12-27.306667s13.653333-15.36 23.893334-15.36H392.533333V59.733333c0-13.653333 11.946667-25.6 25.6-25.6h191.146667c13.653333 0 25.6 11.946667 25.6 25.6v235.52h165.546667c10.24 0 20.48 6.826667 23.893333 15.36s1.706667 20.48-5.12 27.306667L530.773333 624.64c-5.12 5.12-11.946667 8.533333-18.773333 8.533333zM288.426667 346.453333L512 571.733333l223.573333-223.573333h-128c-13.653333 0-25.6-11.946667-25.6-25.6V85.333333h-139.946666v235.52c0 13.653333-11.946667 25.6-25.6 25.6h-128zM940.373333 822.613333H83.626667c-13.653333 0-25.6-11.946667-25.6-25.6s11.946667-25.6 25.6-25.6h856.746666c13.653333 0 25.6 11.946667 25.6 25.6s-11.946667 25.6-25.6 25.6zM749.226667 989.866667H274.773333c-13.653333 0-25.6-11.946667-25.6-25.6s11.946667-25.6 25.6-25.6H750.933333c13.653333 0 25.6 11.946667 25.6 25.6s-11.946667 25.6-27.306666 25.6z" fill="#333333" p-id="19450"></path></svg>