<svg t="1715130696224" class="icon" viewBox="0 0 1024 1024" version="1.1" xmlns="http://www.w3.org/2000/svg" p-id="4895" width="70" height="70"><path d="M469.77 361.612a253.164 253.164 0 1 0 506.328 0 253.164 253.164 0 1 0-506.328 0z" fill="#E9EAEB" p-id="4896"></path><path d="M749.811 886.725a211.837 211.837 0 0 1-198.47-137.275l29.622-11.127a181.13 181.13 0 1 0 134.313-242.037l-6.142-31.068a212.776 212.776 0 1 1 82.438 417.46 215.377 215.377 0 0 1-41.761 4.047z" fill="#BCC0C4" p-id="4897"></path><path d="M772.772 868.568l31.046-6.126 12.976 65.704-31.046 6.134zM940.48 620.332l64.15-12.673 6.128 31.053-64.144 12.666z m-36.161 175.806l17.622-26.285 55.27 37.064-17.628 26.278z m-313.01 86.83l37.065-55.271 26.278 17.621-37.058 55.272z m256.236-382.326l35.763-53.35 26.285 17.623-35.764 53.35z m-164.087 427.28l13.142-65.524 31.024 6.221-13.135 65.53z m90.486-451.679l12.557-62.619 31.031 6.221-12.564 62.626z m71.7 369.205l26.343-17.535 37.042 55.626-26.342 17.535z m94.186-117.514l6.213-31.032 64.606 12.948-6.213 31.03z m-33.77-176.702l53.935-35.93 17.542 26.335-53.935 35.93zM729.726 820.399a68.42 68.42 0 1 1 68.42-68.42 68.493 68.493 0 0 1-68.42 68.42z m0-105.123A36.775 36.775 0 1 0 766.5 752.05a36.848 36.848 0 0 0-36.775-36.775z m93.925-29.984a62.28 62.28 0 1 1 62.28-62.28 62.352 62.352 0 0 1-62.28 62.28z m0-92.842a30.634 30.634 0 1 0 30.634 30.634 30.634 30.634 0 0 0-30.634-30.634z" fill="#BCC0C4" p-id="4898"></path><path d="M96.794 467.038a263.424 263.424 0 1 0 524.315-51.595 263.424 263.424 0 1 0-524.315 51.595z" fill="#A3D4FF" p-id="4899"></path><path d="M358.433 720.55a279.824 279.824 0 1 1 27.888-1.373c-9.32 0.867-18.64 1.373-27.888 1.373z m0.939-526.848q-12.283 0-24.71 1.229a247.6 247.6 0 1 0 270.721 222.096 247.6 247.6 0 0 0-245.65-223.397z" fill="#2A5082" p-id="4900"></path><path d="M196.072 388.596a82.437 82.437 0 1 0 164.081-16.146 82.437 82.437 0 1 0-164.082 16.146z" fill="#FFFFFF" p-id="4901"></path><path d="M277.946 478.801a98.26 98.26 0 1 1 97.754-107.87 98.332 98.332 0 0 1-88 107.364c-3.252 0.362-6.503 0.506-9.754 0.506z m0-164.875h-6.575a66.615 66.615 0 1 0 72.828 59.751 66.687 66.687 0 0 0-66.036-59.75z" fill="#2A5082" p-id="4902"></path><path d="M410.741 432.368a65.82 65.82 0 1 0 131.007-12.891 65.82 65.82 0 1 0-131.007 12.891z" fill="#FFFFFF" p-id="4903"></path><path d="M476.2 507.557a81.643 81.643 0 1 1 81.354-89.663 81.715 81.715 0 0 1-73.479 89.23 69.98 69.98 0 0 1-7.875 0.433z m0-131.64a49.997 49.997 0 0 0-49.852 54.91 49.997 49.997 0 1 0 99.488-9.826 49.997 49.997 0 0 0-49.491-45.3z" fill="#2A5082" p-id="4904"></path><path d="M297.567 562.178a57.583 57.583 0 1 0 114.613-11.279 57.583 57.583 0 1 0-114.613 11.278z" fill="#FFFFFF" p-id="4905"></path><path d="M354.748 630.02a73.55 73.55 0 1 1 7.225 0c-2.384-0.144-4.841 0-7.225 0z m0-115.238a41.4 41.4 0 0 0-4.19 0 41.76 41.76 0 0 0-22.398 73.911 41.76 41.76 0 0 0 68.132-36.125 41.76 41.76 0 0 0-41.472-37.714z m14.19 188.03l31.493-3.106 8.764 89.091-31.493 3.1zM308.92 93.68l31.5-3.106 8.345 84.85-31.493 3.1z m310.668 306.008l87.068-8.561 3.107 31.493-87.076 8.57z m-611.15 60.22l87.077-8.568 3.1 31.494-87.077 8.569z m542.974 159.724l20.079-24.457 68.803 56.47-20.085 24.465zM77.907 230.853l20.079-24.456 66.455 54.549-20.085 24.456z m46.356 471.46l56.47-68.796 24.464 20.071-56.477 68.804zM514.89 226.462l54.549-66.456 24.464 20.085-54.55 66.449zM244.162 771.414l25.938-85.87 30.38 9.176-25.93 85.87zM421.333 181.42l24.768-81.982 30.38 9.176-24.774 81.982z m-241.532-42.122l27.91-14.92 40.251 75.321-27.91 14.913z m288.553 539.968l27.91-14.912 42.158 78.89-27.91 14.912zM18.792 354.51l9.19-30.28 82.965 25.172-9.19 30.28z m587.025 178.183l9.19-30.28 84.352 25.591-9.19 30.28z m-21.256-229.95l76.47-40.857 14.912 27.91-76.463 40.857zM42.165 592.667l77.741-41.544 14.92 27.903-77.741 41.544zM374.833 235.03h31.646v31.646h-31.646z m-174.05 284.81h31.645v31.646h-31.645z m284.81 47.468h31.645v31.646h-31.645z m-15.823-284.81h31.645v31.646H469.77z" fill="#2A5082" p-id="4906"></path><path d="M833.693 725.463h31.646v31.645h-31.646z" fill="#BCC0C4" p-id="4907"></path></svg>