<svg t="1715130981733" class="icon" viewBox="0 0 1024 1024" version="1.1" xmlns="http://www.w3.org/2000/svg" p-id="14810" width="55" height="55"><path d="M504.371434 16.445242c-277.585576 0-502.576181 70.329009-502.576181 157.049896l0 125.646562c0 86.720887 224.990605 157.050903 502.576181 157.050903 277.573493 0 502.562084-70.329009 502.562084-157.050903L1006.933518 173.495138C1006.933518 86.774251 781.944927 16.445242 504.371434 16.445242L504.371434 16.445242 504.371434 16.445242z" fill="#5AA9D7" p-id="14811"></path><path d="M504.371434 550.425763c-277.585576 0-502.576181-70.329009-502.576181-157.056944L1.795253 581.837152c0 86.720887 224.990605 157.050903 502.576181 157.050903 277.573493 0 502.562084-70.329009 502.562084-157.050903L1006.933518 393.367812C1006.933518 480.096754 781.944927 550.425763 504.371434 550.425763L504.371434 550.425763 504.371434 550.425763z" fill="#367EA9" p-id="14812"></path><path d="M504.371434 833.122222c-277.585576 0-502.576181-70.329009-502.576181-157.050903l0 188.461285c0 86.720887 224.990605 157.050903 502.576181 157.050903 277.573493 0 502.562084-70.329009 502.562084-157.050903L1006.933518 676.072326C1006.933518 762.793213 781.944927 833.122222 504.371434 833.122222L504.371434 833.122222 504.371434 833.122222z" fill="#367EA9" p-id="14813"></path><path d="M504.371434 833.122222" fill="#272636" p-id="14814"></path></svg>