<svg t="1715129779297" class="icon" viewBox="0 0 1024 1024" version="1.1" xmlns="http://www.w3.org/2000/svg" p-id="4367" width="70" height="70"><path d="M518.79 628.34m-252.29 0a252.29 252.29 0 1 0 504.58 0 252.29 252.29 0 1 0-504.58 0Z" fill="#D2DAFF" p-id="4368"></path><path d="M954.15 385.27l-65.83 41.79c-24.94 15.83-47.53 20.16-73.23 14-28.76-6.84-63-26.73-107.67-62.59-5.32-4.27-10.9-8.68-16.72-13.14-3.74-6.3-7.46-12.35-11.07-18.13-30.36-48.61-46.09-84.93-49.5-114.3-3-26.24 3.91-48.16 22.56-71.07l49.24-60.46-40.31-32.79L612.38 129c-27.48 33.75-38.57 69.7-33.9 109.91 2.43 20.89 9.18 43.61 20.72 69.29a298.09 298.09 0 0 0-38.7-14.79C498 274.62 437.2 282 379.72 315.4c-8.35 4.85-31 25-37.41 34C304 403.32 291 463 303.82 526.78a287.83 287.83 0 0 0 7.68 29.72c-23.26-14.51-44.37-24.08-64.3-29.29-39.2-10.21-76.32-4.27-113.56 18.24l-66.73 40.32 26.89 44.5 66.73-40.33c25.28-15.28 48-19.11 73.53-12.43 28.6 7.47 62.37 28.11 106.26 65 6.33 5.31 13 10.83 20.08 16.42 4.71 7.64 9.4 14.93 13.92 21.83 31.42 47.94 47.94 83.9 52 113.18 3.63 26.18-2.85 48.25-21 71.56L357.43 927l41 31.94 47.9-61.52c26.73-34.34 37-70.53 31.47-110.63-2.8-20.44-9.8-42.52-21.5-67.32a288.25 288.25 0 0 0 28.6 11.11 229 229 0 0 0 71.48 11.78c37.16 0 73.69-9.73 109.18-29.14 9.74-5.32 32.38-25.42 38.19-33.15 39.91-53.15 54.41-112.68 43.07-176.94A297.24 297.24 0 0 0 736.69 463c24.14 14.48 45.91 23.85 66.36 28.72 39.39 9.37 76.39 2.58 113.13-20.74L982 429.17zM662.4 648.55c-3.57 4.06-17.8 16.46-22.06 19.21-89.77 48.92-168.54 11.6-240.46-44-46.73-78-74.52-160.56-15.39-243.95 3.23-3.9 17.22-16.58 21.67-19.64 90.07-52.11 170.79-14.92 244.92 40.42 46.22 80.11 73.67 164.65 11.32 247.96z" fill="#27187F" p-id="4369"></path><path d="M441.41 252.25a88.7 88.7 0 1 1 88.7-88.69 88.8 88.8 0 0 1-88.7 88.69z m0-125.4a36.71 36.71 0 1 0 36.71 36.71 36.75 36.75 0 0 0-36.71-36.71zM846 746.55a80.25 80.25 0 1 1 80.25-80.25A80.34 80.34 0 0 1 846 746.55z m0-108.5a28.26 28.26 0 1 0 28.25 28.25A28.29 28.29 0 0 0 846 638.05zM207.63 506a72.28 72.28 0 1 1 72.27-72.27A72.35 72.35 0 0 1 207.63 506z m0-92.55a20.28 20.28 0 1 0 20.28 20.28 20.31 20.31 0 0 0-20.28-20.29zM433.771 445.92l38.866-34.531 141.645 159.426-38.866 34.53zM519.453 411.58l38.866-34.53 100.146 112.718-38.866 34.53zM158.736 690.28l38.866-34.531 141.645 159.426-38.866 34.53zM244.425 655.944l38.866-34.53L383.438 734.13l-38.866 34.531zM388.577 529.988l38.992-34.313 99.515 113.085-38.993 34.313zM708.789 201.566l38.865-34.53L889.3 326.46l-38.866 34.531zM664.612 282.61l38.866-34.53 100.146 112.717-38.866 34.532z" fill="#d4237a" p-id="4370"></path></svg>